<?xml version="1.0" encoding="utf-8"?>
<!-- Generator: Adobe Illustrator 24.1.1, SVG Export Plug-In . SVG Version: 6.00 Build 0)  -->
<svg version="1.1" id="Capa_1" xmlns="http://www.w3.org/2000/svg" xmlns:xlink="http://www.w3.org/1999/xlink" x="0px" y="0px"
	 viewBox="0 0 196 196" style="enable-background:new 0 0 196 196;" xml:space="preserve">
<style type="text/css">
	.st0{fill:none;}
	.st1{fill:#FFFFFF;}
	.st2{fill:#D9E021;}
</style>
<rect x="0.1" y="0.7" class="st0" width="195.6" height="195.6"/>
<circle class="st1" cx="97.9" cy="98.5" r="98"/>
<g>
	<path class="st2" d="M91.4,114.5c-0.9-0.4-1.9-0.2-2.6,0.5l-56.1,56.1c16.6,14.9,37.9,23.8,60.2,24.9v-79.3
		C92.9,115.7,92.3,114.9,91.4,114.5z M65.3,174.1l-3,6.9c-0.7,1.6-2.2,2.5-3.9,2.5c-0.6,0-1.1-0.1-1.7-0.3c-1-0.4-1.8-1.3-2.3-2.3
		c-0.4-1-0.4-2.2,0-3.2l3-6.9c0.9-2.1,3.4-3.1,5.5-2.2c1,0.4,1.8,1.3,2.3,2.3C65.8,172,65.8,173.1,65.3,174.1z M62.5,163.8
		c-0.8,0-1.7-0.3-2.4-0.7c-0.9-0.6-1.5-1.6-1.8-2.7s0-2.2,0.7-3.1l12.9-18.8c0.6-0.9,1.6-1.6,2.7-1.8c1.1-0.2,2.2,0,3.1,0.7
		c0.9,0.6,1.6,1.6,1.8,2.7s0,2.2-0.7,3.1L65.9,162C65.2,163.1,63.9,163.8,62.5,163.8z M83.5,157.3l-3,20.8c-0.3,2.1-2.1,3.6-4.2,3.6
		c-0.2,0-0.4,0-0.6,0c-1.1-0.2-2.1-0.7-2.8-1.6c-0.7-0.9-1-2-0.8-3.1l3-20.8c0.3-2.3,2.4-3.9,4.8-3.6c1.1,0.2,2.1,0.7,2.8,1.6
		C83.3,155,83.6,156.1,83.5,157.3z"/>
	<path class="st2" d="M81.9,91.6c0.4-0.9,0.2-1.9-0.5-2.6L25.3,32.8C10.3,49.5,1.5,70.8,0.3,93.1h79.3
		C80.7,93.1,81.5,92.5,81.9,91.6z M13.1,60.3c-0.4-1-0.4-2.2,0-3.2l0,0c0.9-2.1,3.4-3.1,5.5-2.2l6.9,3c1,0.4,1.8,1.3,2.2,2.3
		c0.4,1,0.4,2.2,0,3.2c-0.7,1.5-2.2,2.5-3.9,2.5c-0.6,0-1.1-0.1-1.6-0.3l-6.9-3C14.3,62.1,13.5,61.3,13.1,60.3z M43.9,80.1
		c-0.3,2.1-2.1,3.6-4.2,3.6c-0.2,0-0.4,0-0.6,0l-20.8-3c-1.1-0.2-2.1-0.7-2.8-1.6s-1-2-0.8-3.1c0.3-2.3,2.5-3.9,4.8-3.6l20.8,3
		c1.1,0.2,2.1,0.7,2.8,1.6C43.8,77.9,44,79,43.9,80.1z M59,77.9c-0.8,1.1-2.1,1.8-3.5,1.8c-0.8,0-1.7-0.3-2.4-0.7L34.4,66.2
		c-0.9-0.6-1.5-1.6-1.8-2.7c-0.2-1.1,0-2.2,0.7-3.1c0.6-0.9,1.6-1.5,2.7-1.8c1.1-0.2,2.2,0,3.1,0.7l18.8,12.9
		c0.9,0.6,1.5,1.6,1.8,2.7C59.9,75.9,59.7,77,59,77.9z"/>
	<path class="st2" d="M81.9,105c-0.4-0.9-1.2-1.5-2.2-1.5H0.3c1.2,22.3,10,43.6,25,60.2l56.1-56.1C82.1,106.9,82.3,105.9,81.9,105z
		 M14.3,131.6c-0.5,0.2-1,0.3-1.6,0.3c-1.7,0-3.3-1-3.9-2.6c-0.4-1-0.4-2.2,0-3.2s1.3-1.8,2.3-2.2l7-2.8c1-0.4,2.2-0.4,3.2,0
		s1.8,1.3,2.2,2.3c0.4,1,0.4,2.2,0,3.2s-1.3,1.8-2.3,2.2L14.3,131.6z M46,129.6l-16.8,12.6c-0.7,0.6-1.6,0.8-2.5,0.8
		c-1.3,0-2.6-0.6-3.4-1.7c-1.4-1.9-1-4.5,0.8-5.9L41,122.9c1.8-1.4,4.5-1,5.9,0.8C48.3,125.6,47.9,128.3,46,129.6z M52.7,116.4
		L52.7,116.4l-22.4,4.2c-0.3,0.1-0.5,0.1-0.8,0.1c-2,0-3.8-1.4-4.1-3.4c-0.4-2.3,1.1-4.5,3.4-4.9l22.4-4.2c2.3-0.4,4.5,1.1,4.9,3.3
		C56.5,113.8,55,116,52.7,116.4z"/>
	<path class="st2" d="M114.3,91.6c0.4,0.9,1.2,1.5,2.2,1.5h79.3c-1.2-22.3-10-43.6-24.9-60.2l-56.1,56.1
		C114.1,89.7,113.9,90.6,114.3,91.6z M181.9,65c1-0.4,2.2-0.4,3.2,0c1,0.4,1.8,1.3,2.2,2.3c0.4,1,0.4,2.2,0,3.2
		c-0.4,1-1.3,1.8-2.3,2.2l-7,2.8c-0.5,0.2-1,0.3-1.6,0.3c-1.7,0-3.3-1-3.9-2.6c-0.4-1-0.4-2.2,0-3.2c0.4-1,1.3-1.8,2.3-2.2L181.9,65
		z M150.1,66.9l16.8-12.6c1.9-1.4,4.5-1,5.9,0.8s1,4.5-0.8,5.9l-16.8,12.6c-0.7,0.6-1.6,0.8-2.5,0.8c-1.3,0-2.6-0.6-3.4-1.7
		C147.9,71,148.3,68.3,150.1,66.9z M143.5,80.2L143.5,80.2l22.4-4.2c2.3-0.4,4.5,1.1,4.9,3.3s-1.1,4.5-3.4,4.9L145,88.4
		c-0.3,0.1-0.5,0.1-0.8,0.1c-2,0-3.8-1.4-4.1-3.4C139.7,82.8,141.2,80.6,143.5,80.2z"/>
	<path class="st2" d="M114.3,105c-0.4,0.9-0.2,1.9,0.5,2.6l56.1,56.1c14.9-16.6,23.8-37.9,24.9-60.2h-79.3
		C115.5,103.5,114.7,104.1,114.3,105z M183.1,136.3c0.4,1,0.4,2.2,0,3.2c-0.7,1.6-2.2,2.5-3.9,2.5c-0.6,0-1.1-0.1-1.6-0.3l-6.9-3
		c-1-0.4-1.8-1.3-2.2-2.3c-0.4-1-0.4-2.2,0-3.2c0.9-2.1,3.4-3.1,5.5-2.2l6.9,3C181.9,134.4,182.7,135.3,183.1,136.3z M152.3,116.5
		c0.3-2.3,2.5-3.9,4.8-3.6l20.8,3c1.1,0.2,2.1,0.7,2.8,1.6s1,2,0.8,3.1c-0.3,2.1-2.1,3.6-4.1,3.6c-0.2,0-0.4,0-0.6,0l-20.8-3
		c-1.1-0.2-2.1-0.7-2.8-1.6C152.4,118.7,152.2,117.6,152.3,116.5z M137.2,118.7c1.3-1.9,3.9-2.4,5.8-1.1l18.8,12.9
		c0.9,0.6,1.6,1.6,1.8,2.7c0.2,1.1,0,2.2-0.7,3.1c-0.8,1.1-2.1,1.8-3.5,1.8c-0.9,0-1.7-0.3-2.4-0.7l-18.8-12.9
		c-0.9-0.6-1.6-1.6-1.8-2.7C136.3,120.7,136.5,119.6,137.2,118.7z"/>
	<path class="st2" d="M105.8,114.3c-0.3,0-0.6,0.1-0.9,0.2c-0.9,0.4-1.5,1.2-1.5,2.2v79.3c22.3-1.2,43.6-10,60.2-24.9L107.5,115
		C107,114.6,106.4,114.3,105.8,114.3z M123.6,149.5L123.6,149.5c1.8-1.4,4.5-1,5.9,0.8l12.6,16.8c1.4,1.9,1,4.5-0.8,5.9
		c-0.7,0.6-1.6,0.8-2.5,0.8c-1.3,0-2.6-0.6-3.4-1.7l-12.6-16.8C121.3,153.5,121.7,150.9,123.6,149.5z M123.1,172.8
		c1-0.4,2.2-0.4,3.2,0c1,0.4,1.8,1.3,2.3,2.3l2.8,7c0.4,1,0.4,2.2,0,3.2c-0.4,1-1.3,1.8-2.3,2.2c-0.5,0.2-1,0.3-1.6,0.3
		c-1.7,0-3.3-1-3.9-2.6l-2.8-7c-0.4-1-0.4-2.2,0-3.2C121.3,174,122.1,173.2,123.1,172.8z M111.3,140.3L111.3,140.3
		c2.3-0.4,4.5,1.1,4.9,3.4l4.2,22.4c0.4,2.3-1.1,4.5-3.3,4.9c-0.3,0.1-0.5,0.1-0.8,0.1c-2,0-3.8-1.4-4.1-3.4l-4.2-22.4
		C107.5,143,109,140.8,111.3,140.3z"/>
	<path class="st2" d="M104.8,82.1c0.9,0.4,1.9,0.2,2.6-0.5l56.1-56.1c-16.6-15-37.9-23.8-60.2-24.9v79.3
		C103.3,80.9,103.9,81.7,104.8,82.1z M130.9,22.4l3-6.9c0.9-2.1,3.4-3.1,5.5-2.2c1,0.4,1.8,1.3,2.3,2.3s0.4,2.2,0,3.2l-3,6.9
		c-0.7,1.5-2.2,2.5-3.9,2.5c-0.6,0-1.1-0.1-1.6-0.3c-1-0.4-1.8-1.3-2.3-2.3C130.4,24.6,130.4,23.5,130.9,22.4z M132.9,32.8
		c1.1-0.2,2.2,0,3.1,0.7c0.9,0.6,1.6,1.6,1.8,2.7c0.2,1.1,0,2.2-0.7,3.1l-12.9,18.8c-0.8,1.1-2.1,1.8-3.5,1.8
		c-0.8,0-1.7-0.3-2.4-0.7c-0.9-0.6-1.6-1.6-1.8-2.7s0-2.2,0.7-3.1l12.9-18.8C130.9,33.7,131.8,33,132.9,32.8z M112.7,39.3l3-20.8
		c0.2-1.1,0.7-2.1,1.6-2.8s2-1,3.1-0.8s2.1,0.7,2.8,1.6c0.7,0.9,1,2,0.8,3.1l-3,20.8c-0.3,2.1-2.1,3.6-4.2,3.6c-0.2,0-0.4,0-0.6,0
		c-1.1-0.2-2.1-0.7-2.8-1.6C112.9,41.5,112.6,40.4,112.7,39.3z"/>
	<path class="st2" d="M88.8,81.6c0.7,0.7,1.7,0.9,2.6,0.5c0.9-0.4,1.5-1.2,1.5-2.2V0.5c-22.3,1.2-43.6,10-60.2,24.9L88.8,81.6z
		 M79.1,25.6L79.1,25.6c2.3-0.4,4.5,1.1,4.9,3.4l4.2,22.4c0.4,2.3-1.1,4.5-3.3,4.9c-0.3,0-0.5,0.1-0.8,0.1c-2,0-3.8-1.4-4.1-3.4
		l-4.2-22.4C75.4,28.2,76.9,26,79.1,25.6z M64.9,11.3c0.4-1,1.3-1.8,2.3-2.2l0,0c2.2-0.9,4.6,0.2,5.5,2.3l2.8,7c0.4,1,0.4,2.2,0,3.2
		c-0.4,1-1.3,1.8-2.3,2.2c-0.5,0.2-1,0.3-1.6,0.3c-1.7,0-3.3-1-3.9-2.6l-2.8-7C64.4,13.5,64.4,12.3,64.9,11.3z M55,23.6L55,23.6
		c1.8-1.4,4.5-1,5.9,0.8l12.6,16.8c1.4,1.8,1,4.5-0.8,5.9c-0.7,0.5-1.6,0.8-2.5,0.8c-1.3,0-2.6-0.6-3.4-1.7L54.2,29.5
		C52.8,27.6,53.2,25,55,23.6z"/>
</g>
<rect x="0.3" y="0.5" class="st0" width="195.6" height="195.6"/>
</svg>
