<?xml version="1.0" encoding="utf-8"?>
<!-- Generator: Adobe Illustrator 24.1.1, SVG Export Plug-In . SVG Version: 6.00 Build 0)  -->
<svg version="1.1" id="Capa_1" xmlns="http://www.w3.org/2000/svg" xmlns:xlink="http://www.w3.org/1999/xlink" x="0px" y="0px"
	 viewBox="0 0 196 196" style="enable-background:new 0 0 196 196;" xml:space="preserve">
<style type="text/css">
	.st0{fill:none;}
</style>
<g>
	<path d="M79.3,134.2c-4.2-0.7-7.3-4.4-7.3-8.8V48.6h-6c-4.5,0-8.1,3.6-8.1,8.1v68.8c0,12.7,10.3,23,23,23h1.8l20.9-11.4l-6.8-12.3
		L79.3,134.2z"/>
	<path d="M151.3,124.7l-17.4,9.6c-4.2-0.7-7.3-4.4-7.3-8.8V56.1c0-4.2-3.4-7.5-7.5-7.5h-6.5v76.9c0,12.7,10.3,23,23,23h1.8L158,137
		L151.3,124.7z"/>
	<rect x="71.9" y="48.6" width="40.5" height="14.8"/>
</g>
<rect x="0.1" y="0.7" class="st0" width="195.6" height="195.6"/>
</svg>
